<svg viewBox="0 0 284 76" xmlns:xlink="http://www.w3.org/1999/xlink" xmlns="http://www.w3.org/2000/svg" width="284" height="76" fill="none"><path fill="#1E1E1E" d="M171.361 59c0 3.817-.886 6.962-2.66 9.435-1.774 2.472-4.193 4.3-7.258 5.483-3.064 1.236-6.504 1.854-10.321 1.854s-7.258-.618-10.322-1.854c-3.064-1.183-5.483-3.01-7.257-5.483s-2.661-5.618-2.661-9.435v-8.225h40.479V59Zm-29.673 1.612c0 2.42.887 4.14 2.661 5.161 1.774 1.076 4.032 1.614 6.773 1.614 2.742 0 5-.538 6.774-1.614 1.773-1.021 2.661-2.742 2.661-5.16v-1.21h-18.869v1.21ZM59.856 42.308c0 2.204.646 3.898 1.936 5.08 1.29 1.13 3.01 1.694 5.16 1.694 2.365 0 4.14-.619 5.322-1.855 1.237-1.237 1.855-2.877 1.855-4.92V18.683h11.209V42.71c0 5.215-1.666 9.355-5 12.419-3.332 3.01-7.795 4.515-13.386 4.515-5.537 0-9.972-1.505-13.304-4.515-3.334-3.064-5-7.205-5-12.42V18.683h11.208v23.626Zm135.1-24.272c4.569 0 8.521.994 11.854 2.983 3.333 1.936 5.859 4.65 7.58 8.145 1.774 3.494 2.526 7.58 2.257 12.257h-31.449c.215 1.559.726 2.93 1.532 4.112.861 1.183 1.99 2.097 3.387 2.742 1.398.645 2.984.968 4.758.968 2.473 0 4.596-.565 6.37-1.693 1.828-1.13 3.065-2.634 3.71-4.516l10.241 5c-.914 2.31-2.365 4.354-4.354 6.128-1.989 1.72-4.355 3.064-7.097 4.031-2.741.968-5.671 1.453-8.789 1.453-4.193 0-7.93-.861-11.209-2.581-3.279-1.775-5.86-4.22-7.741-7.338-1.882-3.118-2.822-6.747-2.822-10.886 0-4.14.94-7.769 2.822-10.887 1.881-3.118 4.462-5.537 7.741-7.257 3.279-1.774 7.016-2.66 11.209-2.66Zm44.908 0c4.57 0 8.521.994 11.854 2.983 3.333 1.936 5.86 4.65 7.58 8.145 1.774 3.494 2.526 7.58 2.258 12.257h-31.45c.215 1.559.726 2.93 1.533 4.112.86 1.183 1.989 2.097 3.386 2.742 1.398.645 2.984.968 4.758.968 2.473 0 4.596-.565 6.37-1.693 1.828-1.13 3.065-2.634 3.71-4.516l10.241 5c-.913 2.31-2.365 4.354-4.354 6.128-1.989 1.72-4.355 3.064-7.097 4.031-2.741.968-5.671 1.453-8.789 1.453-4.193 0-7.929-.861-11.209-2.581-3.279-1.775-5.859-4.22-7.741-7.338-1.881-3.118-2.822-6.747-2.822-10.886 0-4.14.941-7.769 2.822-10.887 1.882-3.118 4.462-5.537 7.741-7.257 3.28-1.774 7.016-2.66 11.209-2.66ZM26.61.618c3.548 0 6.612.673 9.193 2.017 2.58 1.29 4.569 3.144 5.967 5.563 1.397 2.366 2.096 5.162 2.096 8.387 0 3.118-.86 5.887-2.58 8.306-1.375 1.995-3.135 3.458-5.278 4.392 2.244.797 4.11 2.182 5.6 4.154 2.043 2.58 3.065 5.592 3.065 9.033 0 4.945-1.72 8.95-5.161 12.014C36.125 57.494 31.314 59 25.078 59H0V.618h26.61Zm74.865 40.158 15.965-22.094h9.838V59h-11.209V36.905L100.104 59h-9.92V18.682h11.291v22.094Zm-89.621 6.935h13.385c2.312 0 4.059-.592 5.241-1.774 1.237-1.183 1.855-2.77 1.855-4.758 0-2.043-.646-3.628-1.936-4.757-1.236-1.129-2.875-1.693-4.918-1.694H11.853v12.983ZM150.96 18.036c.86 0 1.72.054 2.58.161.86.054 1.694.216 2.5.485h17.015v8.385h-7.5c.645.86 1.129 1.855 1.452 2.984.322 1.129.483 2.312.483 3.549 0 2.687-.699 5.053-2.096 7.095-1.398 2.043-3.333 3.63-5.806 4.758-2.473 1.075-5.349 1.612-8.628 1.612-3.441 0-6.452-.59-9.032-1.773-2.527-1.236-4.488-2.93-5.886-5.08-1.344-2.15-2.017-4.65-2.017-7.5 0-2.957.699-5.51 2.097-7.66 1.452-2.204 3.441-3.925 5.968-5.161 2.58-1.237 5.537-1.855 8.87-1.855Zm-.162 9.596c-1.666 0-3.01.457-4.031 1.37-1.022.915-1.533 2.232-1.533 3.952 0 1.667.511 3.01 1.533 4.032 1.021.968 2.365 1.451 4.031 1.452 1.666 0 2.983-.484 3.951-1.452 1.021-1.021 1.532-2.365 1.532-4.032 0-1.72-.511-3.037-1.532-3.951-.968-.914-2.285-1.371-3.951-1.371Zm44.157.08c-1.72 0-3.279.324-4.677.969a8.641 8.641 0 0 0-3.306 2.74c-.767 1.007-1.256 2.163-1.467 3.469h18.908c-.175-1.322-.64-2.478-1.394-3.468-.861-1.183-1.99-2.096-3.387-2.741-1.344-.645-2.903-.968-4.677-.968Zm44.908 0c-1.72 0-3.279.324-4.676.969a8.644 8.644 0 0 0-3.307 2.74c-.767 1.007-1.256 2.163-1.467 3.469h18.908c-.175-1.322-.64-2.478-1.394-3.468-.86-1.183-1.989-2.096-3.387-2.741-1.344-.645-2.903-.968-4.677-.968Zm-228.01-3.467H25.48c2.043 0 3.628-.565 4.757-1.693 1.13-1.183 1.694-2.688 1.694-4.516 0-1.935-.591-3.44-1.774-4.516-1.183-1.128-2.715-1.693-4.597-1.693H11.854v12.418ZM272.257.431c1.603 0 3.115.267 4.533.801a11.062 11.062 0 0 1 3.73 2.313 10.774 10.774 0 0 1 2.559 3.607c.617 1.398.925 2.95.925 4.656 0 1.706-.308 3.268-.925 4.686a10.774 10.774 0 0 1-2.559 3.608 11.474 11.474 0 0 1-3.73 2.343c-1.418.535-2.93.802-4.533.802-1.603 0-3.124-.267-4.563-.802a11.842 11.842 0 0 1-3.761-2.343 10.998 10.998 0 0 1-2.529-3.608c-.616-1.418-.925-2.98-.925-4.686.001-1.706.309-3.258.925-4.656a11 11 0 0 1 2.529-3.607 11.407 11.407 0 0 1 3.761-2.313 13.003 13.003 0 0 1 4.563-.801Zm0 2.744c-1.583 0-3.042.36-4.378 1.079a8.381 8.381 0 0 0-3.206 3.021c-.802 1.295-1.203 2.806-1.203 4.533 0 1.726.401 3.248 1.203 4.563a8.619 8.619 0 0 0 3.206 3.053c1.336.72 2.795 1.079 4.378 1.079 1.583 0 3.043-.36 4.379-1.08a8.626 8.626 0 0 0 3.206-3.052c.822-1.315 1.233-2.837 1.233-4.563 0-1.727-.411-3.238-1.233-4.533a8.388 8.388 0 0 0-3.206-3.021c-1.336-.72-2.796-1.08-4.379-1.08Zm1.573 2.682c1.213 0 2.148.36 2.806 1.08.657.698.986 1.541.986 2.528 0 .78-.185 1.44-.555 1.973-.37.535-.894.945-1.572 1.233l2.651 4.78h-4.07l-2.004-3.854H270.9v3.853h-3.514V5.857h6.444Zm-2.93 4.872h1.974c.37 0 .658-.082.863-.247.206-.164.309-.41.309-.74 0-.288-.093-.514-.277-.679-.185-.164-.484-.246-.895-.246H270.9v1.912Z"/></svg>